<?xml version="1.0" encoding="UTF-8"?>
<svg width="277px" height="305px" viewBox="0 0 277 305" version="1.1" xmlns="http://www.w3.org/2000/svg" xmlns:xlink="http://www.w3.org/1999/xlink">
    <!-- Generator: Sketch 51.3 (57544) - http://www.bohemiancoding.com/sketch -->
    <title>Group 35</title>
    <desc>Created with Sketch.</desc>
    <defs></defs>
    <g id="account" stroke="none" stroke-width="1" fill="none" fill-rule="evenodd">
        <g id="Main-1" transform="translate(-1336.000000, -3884.000000)">
            <g id="Group-35" transform="translate(1335.000000, 3884.000000)">
                <g id="Group-8" opacity="0.200000003" transform="translate(136.000000, 149.500000) rotate(50.000000) translate(-136.000000, -149.500000) translate(112.000000, 124.000000)" fill="#FFFFFF">
                    <g id="Group" transform="translate(23.278104, 25.694717) rotate(-24.000000) translate(-23.278104, -25.694717) translate(7.278104, 5.194717)" fill-rule="nonzero">
                        <path d="M20.7984558,1.11819655 L30.1913068,10.5110476 L30.1913068,39.1368792 L1.11819655,39.1368792 L1.11819655,1.11819655 L20.7984558,1.11819655 Z M21.2457344,0 L0,0 L0,40.2550758 L31.3095034,40.2550758 L31.3095034,10.0637689 L21.2457344,0 Z" id="Shape"></path>
                    </g>
                    <g id="Group" transform="translate(26.580003, 8.352391) rotate(-24.000000) translate(-26.580003, -8.352391) translate(20.580003, 2.352391)" fill-rule="nonzero">
                        <path d="M1.12393089,1.54705781 L9.66580565,9.94537166 L1.12393089,9.94537166 L1.12393089,1.54705781 Z M1.12393089,0 L0,0 L0,11.050413 L11.2393089,11.050413 L11.2393089,9.94537166 L1.12393089,0 Z" id="Shape"></path>
                    </g>
                    <text id="GIF" transform="translate(25.227800, 27.658325) rotate(-23.000000) translate(-25.227800, -27.658325) " font-family="Montserrat-SemiBold, Montserrat" font-size="8" font-weight="500">
                        <tspan x="16.7295063" y="30.6583247">GIF</tspan>
                    </text>
                </g>
                <g id="Group-9" opacity="0.300000012" transform="translate(15.500000, 115.500000) rotate(-15.000000) translate(-15.500000, -115.500000) translate(3.000000, 105.000000)" fill-rule="nonzero" stroke="#FFFFFF">
                    <rect id="Rectangle-6" x="0.5" y="0.5" width="24" height="20" rx="2"></rect>
                    <polyline id="Path-2" points="0.624023438 13.5742188 7.34521484 6.34521484 20.4765625 20.5292969"></polyline>
                    <polyline id="Path-3" points="13.4624023 12.8818359 17.8139648 8.13378906 24.6166992 15.6391602"></polyline>
                    <circle id="Oval-3" cx="20.5" cy="4.5" r="1.5"></circle>
                </g>
                <g id="Group-9" opacity="0.300000012" transform="translate(263.500000, 267.500000) rotate(-15.000000) translate(-263.500000, -267.500000) translate(251.000000, 257.000000)" fill-rule="nonzero" stroke="#FFFFFF">
                    <rect id="Rectangle-6" x="0.5" y="0.5" width="24" height="20" rx="2"></rect>
                    <polyline id="Path-2" points="0.624023438 13.5742188 7.34521484 6.34521484 20.4765625 20.5292969"></polyline>
                    <polyline id="Path-3" points="13.4624023 12.8818359 17.8139648 8.13378906 24.6166992 15.6391602"></polyline>
                    <circle id="Oval-3" cx="20.5" cy="4.5" r="1.5"></circle>
                </g>
                <g id="Group-10" opacity="0.200000003" transform="translate(250.000000, 179.500000) rotate(12.000000) translate(-250.000000, -179.500000) translate(241.000000, 169.000000)" fill-rule="nonzero">
                    <ellipse id="Oval" stroke="#FFFFFF" cx="4.15384615" cy="16.8" rx="4.65384615" ry="4.7"></ellipse>
                    <path d="M8.80769231,5.1 L16,5.1 C16.8284271,5.1 17.5,4.42842712 17.5,3.6 L17.5,0.5 L10.3076923,0.5 C9.47926518,0.5 8.80769231,1.17157288 8.80769231,2 L8.80769231,5.1 Z" id="Rectangle" stroke="#FFFFFF"></path>
                    <rect id="Rectangle-7" fill="#FFFFFF" x="8.30769231" y="2.8" width="1.38461538" height="12.6"></rect>
                </g>
                <g id="icons8-pdf" opacity="0.200000003" transform="translate(54.000000, 232.000000) rotate(18.000000) translate(-54.000000, -232.000000) translate(39.000000, 213.000000)" fill="#FFFFFF" fill-rule="nonzero">
                    <g id="Group">
                        <path d="M19.0965837,1.04424844 L27.7208473,9.81593537 L27.7208473,36.5486955 L1.02669805,36.5486955 L1.02669805,1.04424844 L19.0965837,1.04424844 Z M19.5072629,0 L0,0 L0,37.592944 L28.7475454,37.592944 L28.7475454,9.39823599 L19.5072629,0 Z" id="Shape"></path>
                    </g>
                    <g id="Group" transform="translate(18.427914, 0.000000)">
                        <path d="M1.03196317,1.44474843 L8.87488324,9.28766851 L1.03196317,9.28766851 L1.03196317,1.44474843 Z M1.03196317,0 L0,0 L0,10.3196317 L10.3196317,10.3196317 L10.3196317,9.28766851 L1.03196317,0 Z" id="Shape"></path>
                    </g>
                    <path d="M7.12857016,29.4846619 C6.41011479,29.4846619 5.89693239,28.9548594 5.89693239,28.4250569 C5.89693239,26.9416098 7.74438905,25.7760443 10.1050281,24.9283603 C11.1313929,23.1270317 12.1577578,20.7959006 12.7735766,18.6766905 C12.1577578,17.087283 11.8498483,15.7097964 11.8498483,14.6501914 C11.8498483,14.1203889 11.9524848,13.5905864 12.1577578,13.2727049 C12.3630307,12.8488628 12.7735766,12.5309813 13.2867591,12.5309813 C13.697305,12.5309813 14.1078509,12.7429023 14.3131239,13.1667443 C14.5183968,13.4846259 14.5183968,13.9084679 14.5183968,14.4382704 C14.5183968,15.3919149 14.2104874,16.875362 13.7999415,18.4647695 C14.5183968,20.1601376 15.5447616,21.9614662 16.6737629,23.3389527 C18.5212196,23.1270317 20.0607668,23.2329922 20.8818587,23.5508737 C21.9082235,23.8687552 22.1134965,24.5045183 22.1134965,24.9283603 C22.1134965,25.3522023 21.9082235,26.4118073 20.1634033,26.4118073 C18.7264926,26.4118073 17.2895818,25.5641233 16.1605805,24.2925972 C14.3131239,24.5045183 12.2603942,24.9283603 10.6182105,25.4581628 C9.6944822,27.8952544 8.25757146,29.4846619 7.12857016,29.4846619 Z M6.9232972,28.4250569 C6.9232972,28.4250569 7.02593368,28.4250569 7.12857016,28.4250569 C7.64175257,28.4250569 8.46284442,27.6833334 9.28393627,26.4118073 C7.84702553,27.0475703 6.9232972,27.7892939 6.9232972,28.4250569 C6.9232972,28.4250569 6.9232972,28.4250569 6.9232972,28.4250569 Z M17.8027642,24.5045183 C18.6238561,25.2462418 19.5475844,25.6700838 20.3686763,25.6700838 C21.2924046,25.6700838 21.2924046,25.3522023 21.2924046,25.2462418 C21.2924046,25.0343208 20.8818587,24.9283603 20.7792222,24.8223998 C20.0607668,24.5045183 19.034402,24.3985578 17.8027642,24.5045183 Z M13.3893955,20.0541771 C12.8762131,21.5376241 12.2603942,23.0210712 11.5419389,24.3985578 C12.8762131,24.0806762 14.2104874,23.7627947 15.4421252,23.5508737 C14.7236698,22.4912687 14.0052144,21.3257031 13.3893955,20.0541771 Z M13.3893955,13.5905864 C13.2867591,13.5905864 13.1841226,13.5905864 13.1841226,13.6965469 C13.0814861,13.8025074 13.0814861,14.0144284 13.0814861,14.5442309 C13.0814861,15.1799939 13.1841226,15.9217174 13.3893955,16.7694015 C13.5946685,15.9217174 13.697305,15.0740334 13.697305,14.4382704 C13.697305,13.9084679 13.5946685,13.6965469 13.5946685,13.5905864 C13.492032,13.5905864 13.3893955,13.5905864 13.3893955,13.5905864 Z" id="Shape"></path>
                </g>
                <g id="icons8-pdf" opacity="0.200000003" transform="translate(247.500000, 20.000000) rotate(11.000000) translate(-247.500000, -20.000000) translate(234.000000, 3.000000)" fill="#FFFFFF" fill-rule="nonzero">
                    <g id="Group">
                        <path d="M16.9953057,0.92934536 L24.670605,8.73584639 L24.670605,32.5270876 L0.913726111,32.5270876 L0.913726111,0.92934536 L16.9953057,0.92934536 Z M17.3607961,0 L0,0 L0,33.456433 L25.5843311,33.456433 L25.5843311,8.36410824 L17.3607961,0 Z" id="Shape"></path>
                    </g>
                    <g id="Group" transform="translate(16.400212, 0.000000)">
                        <path d="M0.918411885,1.28577664 L7.89834221,8.26570697 L0.918411885,8.26570697 L0.918411885,1.28577664 Z M0.918411885,0 L0,0 L0,9.18411885 L9.18411885,9.18411885 L9.18411885,8.26570697 L0.918411885,0 Z" id="Shape"></path>
                    </g>
                    <path d="M6.34418337,26.2403396 C5.70478269,26.2403396 5.24806792,25.7688335 5.24806792,25.2973274 C5.24806792,23.9771103 6.89224109,22.9397969 8.99312904,22.1853871 C9.90655858,20.5822664 10.8199881,18.5076395 11.3680459,16.6216151 C10.8199881,15.2070968 10.5459593,13.9811809 10.5459593,13.0381687 C10.5459593,12.5666626 10.6373022,12.0951565 10.8199881,11.8122529 C11.002674,11.435048 11.3680459,11.1521443 11.8247606,11.1521443 C12.1901324,11.1521443 12.5555043,11.3407468 12.7381902,11.7179516 C12.9208761,12.0008553 12.9208761,12.3780602 12.9208761,12.8495663 C12.9208761,13.6982773 12.6468472,15.0184944 12.2814754,16.4330127 C12.9208761,17.9418322 13.8343056,19.5449529 14.8390781,20.7708688 C16.4832513,20.5822664 17.8533956,20.6765676 18.5841392,20.9594712 C19.4975688,21.2423749 19.6802547,21.8081822 19.6802547,22.1853871 C19.6802547,22.562592 19.4975688,23.5056042 17.9447386,23.5056042 C16.6659372,23.5056042 15.3871358,22.7511944 14.3823633,21.6195798 C12.7381902,21.8081822 10.9113311,22.1853871 9.44984381,22.6568932 C8.62775722,24.8258213 7.34895586,26.2403396 6.34418337,26.2403396 Z M6.16149746,25.2973274 C6.16149746,25.2973274 6.25284041,25.2973274 6.34418337,25.2973274 C6.80089814,25.2973274 7.53164177,24.6372188 8.26238541,23.5056042 C6.98358405,24.0714115 6.16149746,24.7315201 6.16149746,25.2973274 C6.16149746,25.2973274 6.16149746,25.2973274 6.16149746,25.2973274 Z M15.8438506,21.8081822 C16.5745942,22.4682908 17.3966808,22.8454957 18.1274245,22.8454957 C18.9495111,22.8454957 18.9495111,22.562592 18.9495111,22.4682908 C18.9495111,22.2796883 18.5841392,22.1853871 18.4927963,22.0910859 C17.8533956,21.8081822 16.9399661,21.713881 15.8438506,21.8081822 Z M11.9161036,17.847531 C11.4593888,19.1677481 10.9113311,20.4879651 10.2719304,21.713881 C11.4593888,21.4309773 12.6468472,21.1480737 13.7429627,20.9594712 C13.103562,20.016459 12.4641613,18.9791456 11.9161036,17.847531 Z M11.9161036,12.0951565 C11.8247606,12.0951565 11.7334177,12.0951565 11.7334177,12.1894577 C11.6420747,12.283759 11.6420747,12.4723614 11.6420747,12.9438675 C11.6420747,13.5096748 11.7334177,14.1697834 11.9161036,14.9241931 C12.0987895,14.1697834 12.1901324,13.4153736 12.1901324,12.8495663 C12.1901324,12.3780602 12.0987895,12.1894577 12.0987895,12.0951565 C12.0074465,12.0951565 11.9161036,12.0951565 11.9161036,12.0951565 Z" id="Shape"></path>
                </g>
                <g id="Group-8" opacity="0.200000003" transform="translate(155.000000, 279.000000) rotate(6.000000) translate(-155.000000, -279.000000) translate(129.000000, 250.000000)" fill="#FFFFFF">
                    <g id="Group-13" transform="translate(0.796421, 0.115485)" fill-rule="nonzero">
                        <g id="Group" transform="translate(25.496286, 28.345195) rotate(-24.000000) translate(-25.496286, -28.345195) translate(7.996286, 5.845195)">
                            <path d="M23.0110575,1.23715363 L33.403148,11.6292441 L33.403148,43.300377 L1.23715363,43.300377 L1.23715363,1.23715363 L23.0110575,1.23715363 Z M23.5059189,-7.27595761e-12 L8.73114914e-11,-7.27595761e-12 L8.73114914e-11,44.5375306 L34.6403016,44.5375306 L34.6403016,11.1343827 L23.5059189,-7.27595761e-12 Z" id="Shape"></path>
                        </g>
                        <g id="Group" transform="translate(29.225070, 9.170853) rotate(-24.000000) translate(-29.225070, -9.170853) translate(22.725070, 2.670853)">
                            <path d="M1.24349801,1.71163843 L10.6940829,11.0033899 L1.24349801,11.0033899 L1.24349801,1.71163843 Z M1.24349801,-7.27595761e-12 L2.91038305e-11,-7.27595761e-12 L2.91038305e-11,12.2259888 L12.4349801,12.2259888 L12.4349801,11.0033899 L1.24349801,-7.27595761e-12 Z" id="Shape"></path>
                        </g>
                    </g>
                    <text id="PDF" transform="translate(27.408065, 31.747921) rotate(-23.000000) translate(-27.408065, -31.747921) " font-family="Montserrat-SemiBold, Montserrat" font-size="8" font-weight="500">
                        <tspan x="18.4080655" y="34.7479209">PDF</tspan>
                    </text>
                </g>
                <g id="Group-9" opacity="0.200000003" transform="translate(203.000000, 89.000000) rotate(-24.000000) translate(-203.000000, -89.000000) translate(186.000000, 75.000000)" fill-rule="nonzero" stroke="#FFFFFF">
                    <rect id="Rectangle-6" x="0.5" y="0.5" width="32.2933464" height="26.966411" rx="2"></rect>
                    <polyline id="Path-2" points="0.83103314 18.0772467 9.7818713 8.45013744 27.2693316 27.3395597"></polyline>
                    <polyline id="Path-3" points="17.928337 17.1551771 23.7234601 10.8320423 32.7828918 20.8271991"></polyline>
                    <circle id="Oval-3" cx="27.3005441" cy="5.99280236" r="1.99760079"></circle>
                </g>
                <g id="Group-10" opacity="0.300000012" transform="translate(105.000000, 25.500000) rotate(-20.000000) translate(-105.000000, -25.500000) translate(96.000000, 15.000000)" fill-rule="nonzero">
                    <circle id="Oval" stroke="#FFFFFF" cx="4.15384615" cy="16.6153846" r="4.65384615"></circle>
                    <path d="M8.80769231,5.03846154 L16,5.03846154 C16.8284271,5.03846154 17.5,4.36688866 17.5,3.53846154 L17.5,0.5 L10.3076923,0.5 C9.47926518,0.5 8.80769231,1.17157288 8.80769231,2 L8.80769231,5.03846154 Z" id="Rectangle" stroke="#FFFFFF"></path>
                    <polygon id="Rectangle-7" fill="#FFFFFF" points="8.30769231 2.76923077 9.30769231 2.76923077 9.22450262 16.2482041 8.30769231 15.2307692"></polygon>
                </g>
            </g>
        </g>
    </g>
</svg>