<?xml version="1.0" encoding="UTF-8"?>
<svg width="90px" height="36px" viewBox="0 0 90 36" version="1.1" xmlns="http://www.w3.org/2000/svg" xmlns:xlink="http://www.w3.org/1999/xlink">
    <!-- Generator: Sketch 51.1 (57501) - http://www.bohemiancoding.com/sketch -->
    <title>Group 31</title>
    <desc>Created with Sketch.</desc>
    <defs></defs>
    <g id="account" stroke="none" stroke-width="1" fill="none" fill-rule="evenodd" opacity="0.5">
        <g id="MM-Lending-main-Copy" transform="translate(-511.000000, -3184.000000)">
            <g id="Group-31" transform="translate(511.000000, 3184.000000)">
                <g id="Group-33">
                    <path d="M57.09,30.16 C57.09,29.4799966 57.2199987,28.8416697 57.48,28.245 C57.7400013,27.6483304 58.0949978,27.1266689 58.545,26.68 C58.9950023,26.2333311 59.5183304,25.8800013 60.115,25.62 C60.7116697,25.3599987 61.3499966,25.23 62.03,25.23 C62.7100034,25.23 63.3483304,25.3599987 63.945,25.62 C64.5416697,25.8800013 65.0649978,26.2333311 65.515,26.68 C65.9650023,27.1266689 66.3199987,27.6483304 66.58,28.245 C66.8400013,28.8416697 66.97,29.4799966 66.97,30.16 C66.97,30.8400034 66.8400013,31.479997 66.58,32.08 C66.3199987,32.680003 65.9650023,33.2033311 65.515,33.65 C65.0649978,34.0966689 64.5416697,34.4499987 63.945,34.71 C63.3483304,34.9700013 62.7100034,35.1 62.03,35.1 C61.3499966,35.1 60.7116697,34.9700013 60.115,34.71 C59.5183304,34.4499987 58.9950023,34.0966689 58.545,33.65 C58.0949978,33.2033311 57.7400013,32.680003 57.48,32.08 C57.2199987,31.479997 57.09,30.8400034 57.09,30.16 Z M59.47,30.16 C59.47,30.5266685 59.5349994,30.871665 59.665,31.195 C59.7950007,31.5183349 59.9749989,31.7999988 60.205,32.04 C60.4350012,32.2800012 60.7066651,32.4699993 61.02,32.61 C61.3333349,32.7500007 61.6699982,32.82 62.03,32.82 C62.3900018,32.82 62.7249985,32.7500007 63.035,32.61 C63.3450016,32.4699993 63.6149989,32.2800012 63.845,32.04 C64.0750012,31.7999988 64.256666,31.5183349 64.39,31.195 C64.523334,30.871665 64.59,30.5266685 64.59,30.16 C64.59,29.7999982 64.523334,29.4583349 64.39,29.135 C64.256666,28.811665 64.0750012,28.5300012 63.845,28.29 C63.6149989,28.0499988 63.3450016,27.8600007 63.035,27.72 C62.7249985,27.5799993 62.3900018,27.51 62.03,27.51 C61.6699982,27.51 61.3333349,27.5799993 61.02,27.72 C60.7066651,27.8600007 60.4350012,28.0499988 60.205,28.29 C59.9749989,28.5300012 59.7950007,28.811665 59.665,29.135 C59.5349994,29.4583349 59.47,29.7999982 59.47,30.16 Z M68.19,30.16 C68.19,29.4799966 68.3199987,28.8416697 68.58,28.245 C68.8400013,27.6483304 69.1949978,27.1266689 69.645,26.68 C70.0950023,26.2333311 70.6183304,25.8800013 71.215,25.62 C71.8116697,25.3599987 72.4499966,25.23 73.13,25.23 C73.8100034,25.23 74.4483304,25.3599987 75.045,25.62 C75.6416697,25.8800013 76.1649978,26.2333311 76.615,26.68 C77.0650023,27.1266689 77.4199987,27.6483304 77.68,28.245 C77.9400013,28.8416697 78.07,29.4799966 78.07,30.16 C78.07,30.8400034 77.9400013,31.479997 77.68,32.08 C77.4199987,32.680003 77.0650023,33.2033311 76.615,33.65 C76.1649978,34.0966689 75.6416697,34.4499987 75.045,34.71 C74.4483304,34.9700013 73.8100034,35.1 73.13,35.1 C72.4499966,35.1 71.8116697,34.9700013 71.215,34.71 C70.6183304,34.4499987 70.0950023,34.0966689 69.645,33.65 C69.1949978,33.2033311 68.8400013,32.680003 68.58,32.08 C68.3199987,31.479997 68.19,30.8400034 68.19,30.16 Z M70.57,30.16 C70.57,30.5266685 70.6349994,30.871665 70.765,31.195 C70.8950007,31.5183349 71.0749989,31.7999988 71.305,32.04 C71.5350012,32.2800012 71.8066651,32.4699993 72.12,32.61 C72.4333349,32.7500007 72.7699982,32.82 73.13,32.82 C73.4900018,32.82 73.8249985,32.7500007 74.135,32.61 C74.4450016,32.4699993 74.7149989,32.2800012 74.945,32.04 C75.1750012,31.7999988 75.356666,31.5183349 75.49,31.195 C75.623334,30.871665 75.69,30.5266685 75.69,30.16 C75.69,29.7999982 75.623334,29.4583349 75.49,29.135 C75.356666,28.811665 75.1750012,28.5300012 74.945,28.29 C74.7149989,28.0499988 74.4450016,27.8600007 74.135,27.72 C73.8249985,27.5799993 73.4900018,27.51 73.13,27.51 C72.7699982,27.51 72.4333349,27.5799993 72.12,27.72 C71.8066651,27.8600007 71.5350012,28.0499988 71.305,28.29 C71.0749989,28.5300012 70.8950007,28.811665 70.765,29.135 C70.6349994,29.4583349 70.57,29.7999982 70.57,30.16 Z" id="Fanbook" fill="#333333" opacity="0.649999976"></path>
                    <path d="M48.35,26.298493 C48.6619219,26.0315584 49.0069203,25.8087286 49.385,25.63 C49.9350028,25.3699987 50.5199969,25.24 51.14,25.24 C51.8200034,25.24 52.4483305,25.3699987 53.025,25.63 C53.6016696,25.8900013 54.0999979,26.2433311 54.52,26.69 C54.9400021,27.1366689 55.2699988,27.6583304 55.51,28.255 C55.7500012,28.8516697 55.87,29.4899966 55.87,30.17 C55.87,30.8500034 55.7500012,31.489997 55.51,32.09 C55.2699988,32.690003 54.9400021,33.2133311 54.52,33.66 C54.0999979,34.1066689 53.6016696,34.4599987 53.025,34.72 C52.4483305,34.9800013 51.8200034,35.11 51.14,35.11 C50.4599966,35.11 49.8416695,34.9800013 49.285,34.72 C48.7283306,34.4599987 48.2516687,34.1066689 47.855,33.66 C47.8325505,33.6347208 47.8103894,33.609196 47.7885165,33.5834257 L47.67,33.95 C47.5899996,34.3633354 47.4583343,34.6599991 47.275,34.84 C47.0916658,35.0200009 46.8766679,35.11 46.63,35.11 C46.2033312,35.11 45.99,34.8966688 45.99,34.47 L45.99,23.27 C45.99,23.1033325 46.0199997,22.9483341 46.08,22.805 C46.1400003,22.661666 46.2233328,22.5366672 46.33,22.43 C46.4366672,22.3233328 46.561666,22.2400003 46.705,22.18 C46.8483341,22.1199997 47.0033325,22.09 47.17,22.09 C47.3300008,22.09 47.481666,22.1199997 47.625,22.18 C47.7683341,22.2400003 47.8933328,22.3233328 48,22.43 C48.1066672,22.5366672 48.1916664,22.661666 48.255,22.805 C48.3183337,22.9483341 48.35,23.1033325 48.35,23.27 L48.35,26.298493 Z M48.35,30.17 C48.35,30.5366685 48.416666,30.8816651 48.55,31.205 C48.683334,31.528335 48.8666655,31.8099988 49.1,32.05 C49.3333345,32.2900012 49.6066651,32.4799993 49.92,32.62 C50.2333349,32.7600007 50.5699982,32.83 50.93,32.83 C51.2900018,32.83 51.6249985,32.7600007 51.935,32.62 C52.2450016,32.4799993 52.5149989,32.2900012 52.745,32.05 C52.9750012,31.8099988 53.156666,31.528335 53.29,31.205 C53.423334,30.8816651 53.49,30.5366685 53.49,30.17 C53.49,29.8099982 53.423334,29.468335 53.29,29.145 C53.156666,28.8216651 52.9750012,28.5400012 52.745,28.3 C52.5149989,28.0599988 52.2450016,27.8700007 51.935,27.73 C51.6249985,27.5899993 51.2900018,27.52 50.93,27.52 C50.5699982,27.52 50.2333349,27.5899993 49.92,27.73 C49.6066651,27.8700007 49.3333345,28.0599988 49.1,28.3 C48.8666655,28.5400012 48.683334,28.8216651 48.55,29.145 C48.416666,29.468335 48.35,29.8099982 48.35,30.17 Z" id="Combined-Shape" fill="#333333" opacity="0.649999976"></path>
                    <path d="M29.5937983,33.7485931 C29.2352795,34.1536333 28.8056838,34.4774327 28.305,34.72 C27.7683307,34.9800013 27.1600034,35.11 26.48,35.11 C25.7999966,35.11 25.1616697,34.9800013 24.565,34.72 C23.9683304,34.4599987 23.4450023,34.1066689 22.995,33.66 C22.5449978,33.2133311 22.1900013,32.690003 21.93,32.09 C21.6699987,31.489997 21.54,30.8500034 21.54,30.17 C21.54,29.4899966 21.6699987,28.8516697 21.93,28.255 C22.1900013,27.6583304 22.5449978,27.1366689 22.995,26.69 C23.4450023,26.2433311 23.9683304,25.8900013 24.565,25.63 C25.1616697,25.3699987 25.7999966,25.24 26.48,25.24 C27.1600034,25.24 27.7683307,25.3699987 28.305,25.63 C28.8332456,25.8859202 29.2823611,26.2322621 29.6523596,26.6690357 L29.74,26.4 C29.8200004,25.9799979 29.9516657,25.6816676 30.135,25.505 C30.3183342,25.3283325 30.5333321,25.24 30.78,25.24 C31.2066688,25.24 31.42,25.4533312 31.42,25.88 L31.42,30.19 L31.42,34.35 C31.42,34.5966679 31.3566673,34.7849994 31.23,34.915 C31.1033327,35.0450007 30.9233345,35.11 30.69,35.11 C30.4433321,35.11 30.2416674,35.0383341 30.085,34.895 C29.9283325,34.751666 29.8133337,34.5633345 29.74,34.33 L29.5937983,33.7485931 Z M29.04,30.17 C29.04,29.8099982 28.973334,29.468335 28.84,29.145 C28.706666,28.8216651 28.5250011,28.5400012 28.295,28.3 C28.0649988,28.0599988 27.7950015,27.8700007 27.485,27.73 C27.1749984,27.5899993 26.8400018,27.52 26.48,27.52 C26.1199982,27.52 25.7833349,27.5899993 25.47,27.73 C25.1566651,27.8700007 24.8850011,28.0599988 24.655,28.3 C24.4249988,28.5400012 24.2450006,28.8216651 24.115,29.145 C23.9849993,29.468335 23.92,29.8099982 23.92,30.17 C23.92,30.5366685 23.9849993,30.8816651 24.115,31.205 C24.2450006,31.528335 24.4249988,31.8099988 24.655,32.05 C24.8850011,32.2900012 25.1566651,32.4799993 25.47,32.62 C25.7833349,32.7600007 26.1199982,32.83 26.48,32.83 C26.8400018,32.83 27.1749984,32.7600007 27.485,32.62 C27.7950015,32.4799993 28.0649988,32.2900012 28.295,32.05 C28.5250011,31.8099988 28.706666,31.528335 28.84,31.205 C28.973334,30.8816651 29.04,30.5366685 29.04,30.17 Z" id="Combined-Shape" fill="#333333" opacity="0.649999976"></path>
                    <path d="M36.12,30.19 L36.12,33.92 C36.12,34.0866675 36.0883336,34.2416659 36.025,34.385 C35.9616663,34.528334 35.8766672,34.6533328 35.77,34.76 C35.6633328,34.8666672 35.538334,34.9499997 35.395,35.01 C35.2516659,35.0700003 35.1000008,35.1 34.94,35.1 C34.7733325,35.1 34.618334,35.0700003 34.475,35.01 C34.3316659,34.9499997 34.2066672,34.8666672 34.1,34.76 C33.9933328,34.6533328 33.9100003,34.528334 33.85,34.385 C33.7899997,34.2416659 33.76,34.0866675 33.76,33.92 L33.76,25.87 C33.76,25.4433312 33.9733312,25.23 34.4,25.23 C34.6466679,25.23 34.8599991,25.3149991 35.04,25.485 C35.2200009,25.6550008 35.3533329,25.9566645 35.44,26.39 L35.5396469,26.8117612 C35.6977522,26.6510399 35.8695359,26.4987868 36.055,26.355 C36.3516682,26.1249989 36.6683317,25.9283342 37.005,25.765 C37.3416684,25.6016659 37.6899982,25.4733338 38.05,25.38 C38.4100018,25.2866662 38.7666649,25.24 39.12,25.24 C39.8000034,25.24 40.4183306,25.3699987 40.975,25.63 C41.5316695,25.8900013 42.0083314,26.2416645 42.405,26.685 C42.8016687,27.1283356 43.1083323,27.6483304 43.325,28.245 C43.5416678,28.8416697 43.65,29.4799966 43.65,30.16 L43.65,33.92 C43.65,34.0733341 43.621667,34.2199993 43.565,34.36 C43.5083331,34.5000007 43.4266672,34.6249995 43.32,34.735 C43.2133328,34.8450006 43.0883341,34.933333 42.945,35 C42.801666,35.066667 42.6466675,35.1 42.48,35.1 C42.3133325,35.1 42.1583341,35.0683337 42.015,35.005 C41.871666,34.9416664 41.7466672,34.8566672 41.64,34.75 C41.5333328,34.6433328 41.4483337,34.5183341 41.385,34.375 C41.3216664,34.231666 41.29,34.0800008 41.29,33.92 L41.29,30.17 C41.29,29.8099982 41.228334,29.468335 41.105,29.145 C40.9816661,28.8216651 40.8100011,28.5400012 40.59,28.3 C40.3699989,28.0599988 40.1100015,27.8700007 39.81,27.73 C39.5099985,27.5899993 39.1800018,27.52 38.82,27.52 C38.4666649,27.52 38.1266683,27.5933326 37.8,27.74 C37.4733317,27.8866674 37.1850013,28.0816655 36.935,28.325 C36.6849988,28.5683346 36.4866674,28.8516651 36.34,29.175 C36.1933326,29.498335 36.12,29.8366649 36.12,30.19 Z" id="Combined-Shape" fill="#333333" opacity="0.649999976"></path>
                    <path d="M11.34,23.56 C11.3333333,23.426666 11.3116669,23.2883341 11.275,23.145 C11.2383332,23.001666 11.22,22.863334 11.22,22.73 C11.22,22.5833326 11.2699995,22.4650005 11.37,22.375 C11.4700005,22.2849996 11.6699985,22.24 11.97,22.24 L19.3,22.24 C19.4066672,22.24 19.526666,22.2566665 19.66,22.29 C19.793334,22.3233335 19.9183328,22.3816663 20.035,22.465 C20.1516673,22.5483338 20.2499996,22.6583327 20.33,22.795 C20.4100004,22.9316674 20.4533333,23.099999 20.46,23.3 C20.46,23.4600008 20.4333336,23.611666 20.38,23.755 C20.3266664,23.8983341 20.2500005,24.0249995 20.15,24.135 C20.0499995,24.2450006 19.9283341,24.3316664 19.785,24.395 C19.641666,24.4583337 19.4800009,24.49 19.3,24.49 L13.69,24.49 L13.69,27.83 L17.89,27.83 C18.0366674,27.83 18.181666,27.8549998 18.325,27.905 C18.4683341,27.9550003 18.5949995,28.0283329 18.705,28.125 C18.8150006,28.2216672 18.903333,28.3383327 18.97,28.475 C19.036667,28.6116674 19.07,28.7699991 19.07,28.95 C19.07,29.1233342 19.036667,29.281666 18.97,29.425 C18.903333,29.5683341 18.8150006,29.6933328 18.705,29.8 C18.5949995,29.9066672 18.4700007,29.9883331 18.33,30.045 C18.1899993,30.101667 18.0433341,30.13 17.89,30.13 L13.69,30.13 L13.69,33.87 C13.69,34.0300008 13.661667,34.1849993 13.605,34.335 C13.5483331,34.4850008 13.4683339,34.6166661 13.365,34.73 C13.2616662,34.8433339 13.1383341,34.933333 12.995,35 C12.851666,35.066667 12.6900009,35.1 12.51,35.1 C12.3299991,35.1 12.1683341,35.066667 12.025,35 C11.881666,34.933333 11.7600005,34.8433339 11.66,34.73 C11.5599995,34.6166661 11.481667,34.4850008 11.425,34.335 C11.3683331,34.1849993 11.34,34.0300008 11.34,33.87 L11.34,23.56 Z" id="Path" fill="#333333" opacity="0.649999976"></path>
                    <path d="M82.16,29.46 L86.64,25.99 C86.8200009,25.856666 87.009999,25.7250006 87.21,25.595 C87.410001,25.4649993 87.6133323,25.3500005 87.82,25.25 C87.9200005,25.2166665 88.0249995,25.195 88.135,25.185 C88.2450006,25.1749999 88.3566661,25.1866665 88.47,25.22 C88.6300008,25.2666669 88.7783327,25.3533327 88.915,25.48 C89.0516674,25.6066673 89.1466664,25.7566658 89.2,25.93 C89.2466669,26.0766674 89.2666667,26.2299992 89.26,26.39 C89.2533333,26.4900005 89.2250003,26.5916661 89.175,26.695 C89.1249998,26.7983338 89.0616671,26.8983328 88.985,26.995 C88.908333,27.0916671 88.8250005,27.1833329 88.735,27.27 C88.6449996,27.3566671 88.5566671,27.433333 88.47,27.5 L86.46,29.05 L89.05,33.2 C89.1966674,33.3733342 89.2833332,33.5633323 89.31,33.77 C89.3366668,33.9766677 89.3133337,34.1716657 89.24,34.355 C89.1666663,34.5383342 89.0483342,34.6949993 88.885,34.825 C88.7216659,34.9550006 88.5266678,35.0299999 88.3,35.05 C88.1933328,35.0766668 88.0883339,35.0800001 87.985,35.06 C87.8816662,35.0399999 87.7850005,35.0050002 87.695,34.955 C87.6049996,34.9049997 87.5216671,34.8450003 87.445,34.775 C87.368333,34.7049996 87.3000003,34.6333337 87.24,34.56 L84.64,30.39 C84.3799987,30.5966677 84.1366678,30.7866658 83.91,30.96 C83.6833322,31.1333342 83.470001,31.2966659 83.27,31.45 C83.069999,31.6033341 82.8800009,31.7516659 82.7,31.895 C82.5199991,32.038334 82.3400009,32.1799993 82.16,32.32 L82.16,29.46 Z" id="Path" fill="#333333" opacity="0.649999976"></path>
                    <path d="M79.8,23.35 C79.8,23.1899992 79.8299997,23.0383341 79.89,22.895 C79.9500003,22.751666 80.0333328,22.6266672 80.14,22.52 C80.2466672,22.4133328 80.371666,22.3300003 80.515,22.27 C80.6583341,22.2099997 80.8133325,22.18 80.98,22.18 C81.1400008,22.18 81.291666,22.2099997 81.435,22.27 C81.5783341,22.3300003 81.7033328,22.4133328 81.81,22.52 C81.9166672,22.6266672 82.0016664,22.751666 82.065,22.895 C82.1283337,23.0383341 82.16,23.1899992 82.16,23.35 L82.16,33.92 C82.16,34.0866675 82.1283337,34.241666 82.065,34.385 C82.0016664,34.5283341 81.9166672,34.6533328 81.81,34.76 C81.7033328,34.8666672 81.5783341,34.9499997 81.435,35.01 C81.291666,35.0700003 81.1400008,35.1 80.98,35.1 C80.8133325,35.1 80.6583341,35.0700003 80.515,35.01 C80.371666,34.9499997 80.2466672,34.8666672 80.14,34.76 C80.0333328,34.6533328 79.9500003,34.5283341 79.89,34.385 C79.8299997,34.241666 79.8,34.0866675 79.8,33.92 L79.8,23.35 Z" id="Path" fill="#333333" opacity="0.649999976"></path>
                    <g id="Group" opacity="0.800000012" transform="translate(17.500000, 11.136364) scale(-1, 1) translate(-17.500000, -11.136364) " fill-rule="nonzero">
                        <g id="Shape">
                            <polygon fill="#FFFFFF" points="1.19397727 1.06829545 25.5102273 3.62409091 21.2545455 8.75477273 22.1947727 13.5823864 17.1142045 13.0709091 14.2943182 15.7690909"></polygon>
                            <path d="M14.2935227,16.2065909 C14.2879545,16.2065909 14.2815909,16.2065909 14.2768182,16.2065909 C14.1582955,16.2018182 14.0461364,16.1493182 13.9673864,16.0602273 L0.867045455,1.36022727 C0.746931818,1.225 0.721477273,1.03011364 0.804204545,0.869431818 C0.886931818,0.709545455 1.05238636,0.618068182 1.23931818,0.633977273 L25.5555682,3.18977273 C25.7154545,3.20647727 25.8538636,3.30988636 25.9151136,3.46022727 C25.9755682,3.60977273 25.9493182,3.78 25.8459091,3.90488636 L21.7230682,8.87488636 L22.6243182,13.4988636 C22.6505682,13.6348864 22.6107955,13.7756818 22.5177273,13.8775 C22.4254545,13.9809091 22.2806818,14.035 22.1510227,14.0182955 L17.2701136,13.5275 L14.595,16.0864773 C14.5138636,16.1628409 14.4064773,16.2065909 14.2935227,16.2065909 Z M2.27261364,1.62193182 L14.3181818,15.1398864 L16.8119318,12.7551136 C16.9034091,12.6668182 17.0370455,12.6206818 17.1579545,12.6365909 L21.6530682,13.0884091 L20.825,8.83829545 C20.8003409,8.70943182 20.8345455,8.57579545 20.9180682,8.47477273 L24.6511364,3.97409091 L2.27261364,1.62193182 Z" fill="#333333"></path>
                        </g>
                        <polygon id="Shape" fill="#FFFFFF" points="21.8057955 13.4264773 19.0034091 10.8468182 1.28545455 1.32840909 20.9435227 8.61397727"></polygon>
                        <path d="M21.805,13.7040909 C21.7373864,13.7040909 21.6697727,13.6802273 21.6164773,13.6309091 L18.8411364,11.0743182 L1.15340909,1.57420455 C1.02534091,1.505 0.97125,1.34829545 1.03170455,1.21545455 C1.09136364,1.08102273 1.24488636,1.015 1.38011364,1.06670455 L21.2792045,8.29022727 C21.4239773,8.34272727 21.4979545,8.50261364 21.44625,8.64659091 C21.39375,8.79215909 21.2314773,8.86613636 21.0898864,8.81363636 L4.80136364,2.90022727 L19.13625,10.6002273 C19.1561364,10.6113636 19.1760227,10.6248864 19.1927273,10.6407955 L21.9943182,13.2204545 C22.1072727,13.3246591 22.1144318,13.50125 22.0110227,13.6142045 C21.9553409,13.6738636 21.8805682,13.7040909 21.805,13.7040909 Z" id="Shape" fill="#333333"></path>
                        <path d="M14.2935227,16.1668182 C14.1917045,16.1668182 14.0898864,16.1278409 14.0119318,16.0506818 C13.8568182,15.8955682 13.8568182,15.6426136 14.0119318,15.4882955 L18.7544318,10.75375 C18.9095455,10.5986364 19.1617045,10.5986364 19.3168182,10.75375 C19.4719318,10.9088636 19.4719318,11.1618182 19.3168182,11.3161364 L14.5743182,16.0506818 C14.4971591,16.1278409 14.3953409,16.1668182 14.2935227,16.1668182 Z" id="Shape" fill="#333333"></path>
                        <path d="M31.8269318,22.1661364 C31.7434091,22.1661364 31.6590909,22.1398864 31.5875,22.0857955 C30.4468182,21.2259091 29.6322727,19.9189773 29.3522727,18.4998864 C29.2425,17.9478409 29.23375,17.4307955 29.2806818,16.9670455 C29.0396591,16.9407955 28.79625,16.9002273 28.5544318,16.8477273 C28.3388636,16.8007955 28.2036364,16.5892045 28.2505682,16.3744318 C28.2975,16.1596591 28.5122727,16.0244318 28.7238636,16.0705682 C28.9569318,16.1206818 29.19,16.1580682 29.4198864,16.1819318 C29.5368182,15.7205682 29.6967045,15.3467045 29.8263636,15.0873864 C30.3004545,14.1431818 31.7434091,12.8139773 32.9119318,12.8943182 C33.2515909,12.9157955 33.8656818,13.0828409 34.1735227,13.9594318 C34.3723864,14.5265909 34.2904545,15.0698864 33.9380682,15.5328409 C33.1760227,16.5327273 31.2725,16.9415909 30.0777273,16.9940909 C30.0307955,17.4013636 30.0355682,17.8571591 30.1318182,18.3463636 C30.3752273,19.5753409 31.0792045,20.7072727 32.0655682,21.4502273 C32.2413636,21.5822727 32.2763636,21.83125 32.1443182,22.0070455 C32.0663636,22.1120455 31.9470455,22.1661364 31.8269318,22.1661364 Z M32.8125,13.6873864 C32.05125,13.6873864 30.8867045,14.7485227 30.5382955,15.4445455 C30.4452273,15.6290909 30.3354545,15.8836364 30.2431818,16.1906818 C31.3425,16.1111364 32.8029545,15.7102273 33.3064773,15.05 C33.4965909,14.8010227 33.5339773,14.5369318 33.4234091,14.2219318 C33.2627273,13.7653409 33.0264773,13.6985227 32.8618182,13.6881818 C32.8451136,13.6881818 32.8292045,13.6873864 32.8125,13.6873864 Z" id="Shape" fill="#333333"></path>
                        <path d="M27.5990909,16.5709091 C27.5656818,16.5709091 27.5314773,16.5669318 27.4980682,16.5573864 C27.3318182,16.5136364 26.67875,16.3314773 26.5156818,16.2789773 C26.3056818,16.2113636 26.1911364,15.9878409 26.2579545,15.7786364 C26.3255682,15.5686364 26.5490909,15.4564773 26.7582955,15.5209091 C26.915,15.5710227 27.5418182,15.7460227 27.7009091,15.7881818 C27.9140909,15.8438636 28.0405682,16.0618182 27.9840909,16.2734091 C27.9363636,16.4523864 27.7748864,16.5709091 27.5990909,16.5709091 Z" id="Shape" fill="#333333"></path>
                        <path d="M25.7234091,15.88125 C25.6653409,15.88125 25.6064773,15.8685227 25.55,15.8414773 C25.1872727,15.6656818 24.8189773,15.4604545 24.4538636,15.2321591 C24.2677273,15.1160227 24.2104545,14.8702273 24.3273864,14.6848864 C24.4435227,14.4979545 24.6909091,14.4422727 24.8746591,14.5584091 C25.2167045,14.7715909 25.5595455,14.9625 25.8960227,15.1255682 C26.0940909,15.2218182 26.1768182,15.4596591 26.0805682,15.6569318 C26.0129545,15.7985227 25.8713636,15.88125 25.7234091,15.88125 Z" id="Shape" fill="#333333"></path>
                        <g transform="translate(6.363636, 3.181818)" fill="#333333" id="Shape">
                            <path d="M9.56613636,3.72590909 C9.71806818,4.59056818 9.86920455,5.45443182 10.0211364,6.31909091 C10.0561364,6.52034091 10.3631818,6.43522727 10.3281818,6.23477273 C10.17625,5.37011364 10.0251136,4.50625 9.87318182,3.64159091 C9.83738636,3.44034091 9.53113636,3.52545455 9.56613636,3.72590909 Z"></path>
                            <path d="M7.98318182,3.08 C8.10170455,3.87943182 8.21943182,4.67965909 8.33795455,5.47909091 C8.36738636,5.68113636 8.67443182,5.59522727 8.645,5.39477273 C8.52647727,4.59534091 8.40875,3.79511364 8.29022727,2.99568182 C8.26079545,2.79363636 7.95375,2.87875 7.98318182,3.08 Z"></path>
                            <path d="M6.24988636,2.42375 C6.39068182,3.14363636 6.53147727,3.86352273 6.67147727,4.58340909 C6.71045455,4.78386364 7.0175,4.69954545 6.97852273,4.49909091 C6.83772727,3.77920455 6.69693182,3.05931818 6.55693182,2.33943182 C6.51715909,2.13818182 6.21090909,2.22329545 6.24988636,2.42375 Z"></path>
                            <path d="M4.41556818,1.75397727 C4.54125,2.345 4.64863636,2.94 4.77431818,3.53181818 C4.81647727,3.73227273 5.12352273,3.64715909 5.08136364,3.4475 C4.95568182,2.85647727 4.84829545,2.26147727 4.72261364,1.66965909 C4.67965909,1.46920455 4.37261364,1.55352273 4.41556818,1.75397727 Z"></path>
                            <path d="M2.71647727,1.13511364 C2.81511364,1.60045455 2.91375,2.06579545 3.01159091,2.53113636 C3.05375,2.73159091 3.36079545,2.64647727 3.31863636,2.44681818 C3.22,1.98147727 3.12136364,1.51613636 3.02352273,1.05079545 C2.98056818,0.849545455 2.67352273,0.934659091 2.71647727,1.13511364 Z"></path>
                            <path d="M0.7525,0.433522727 C0.806590909,0.773977273 0.861477273,1.11443182 0.915568182,1.45409091 C0.948181818,1.65534091 1.25443182,1.57022727 1.22261364,1.36977273 C1.16852273,1.02931818 1.11363636,0.688863636 1.05954545,0.349204545 C1.02693182,0.147159091 0.720681818,0.233068182 0.7525,0.433522727 Z"></path>
                            <path d="M11.2206818,4.27954545 C11.3885227,5.18954545 11.5563636,6.09954545 11.7234091,7.00875 C11.7607955,7.21 12.0670455,7.12488636 12.0304545,6.92443182 C11.8626136,6.01443182 11.6947727,5.10443182 11.5277273,4.19522727 C11.4903409,3.99318182 11.1832955,4.07909091 11.2206818,4.27954545 Z"></path>
                            <path d="M12.9738636,4.85863636 C13.1878409,6.07568182 13.4010227,7.29193182 13.615,8.50897727 C13.65,8.71022727 13.9570455,8.62511364 13.9220455,8.42465909 C13.7080682,7.20761364 13.4948864,5.99136364 13.2809091,4.77431818 C13.2451136,4.57227273 12.9388636,4.65738636 12.9738636,4.85863636 Z"></path>
                        </g>
                        <path d="M23.8031818,14.6856818 C23.7125,14.6856818 23.6210227,14.6546591 23.54625,14.5918182 L23.2877273,14.3730682 C23.1198864,14.2306818 23.1,13.9801136 23.2407955,13.8122727 C23.3839773,13.6460227 23.6353409,13.6261364 23.8015909,13.7653409 L24.0601136,13.9840909 C24.2279545,14.1264773 24.2478409,14.3770455 24.1070455,14.5448864 C24.0275,14.6371591 23.9161364,14.6856818 23.8031818,14.6856818 Z" id="Shape" fill="#333333"></path>
                    </g>
                </g>
            </g>
        </g>
    </g>
</svg>