<?xml version="1.0" encoding="UTF-8"?>
<svg width="179px" height="36px" viewBox="0 0 179 36" version="1.1" xmlns="http://www.w3.org/2000/svg" xmlns:xlink="http://www.w3.org/1999/xlink">
    <!-- Generator: Sketch 51.3 (57544) - http://www.bohemiancoding.com/sketch -->
    <title>logo-2</title>
    <desc>Created with Sketch.</desc>
    <defs></defs>
    <g id="Page-1" stroke="none" stroke-width="1" fill="none" fill-rule="evenodd" opacity="0.5">
        <g id="logo-3" transform="translate(0.000000, 8.000000)" fill="#333333" fill-rule="nonzero">
            <g id="account">
                <g id="MM-Lending-main">
                    <g id="Group-17">
                        <g id="Group-37">
                            <path d="M31.904,4.274 L32.048,4.274 C33.83,4.274 35.612,5.138 36.908,6.362 L35.288,7.856 C34.352,7.1 32.966,6.614 32.048,6.614 L31.904,6.614 C31.076,6.614 29.726,6.92 29.726,8.018 C29.726,8.864 30.698,9.116 31.832,9.26 L32.84,9.368 C35.396,9.674 37.304,10.628 37.304,13.238 C37.304,15.632 35.198,17.108 32.408,17.126 L32.3,17.126 C29.78,17.126 27.944,15.938 26.954,14.588 L28.574,13.094 C29.132,13.886 30.428,14.786 32.3,14.786 L32.408,14.786 C33.866,14.768 34.82,14.192 34.82,13.238 C34.82,12.14 33.794,11.834 32.498,11.672 L31.508,11.564 C29.096,11.276 27.242,10.322 27.242,8.108 C27.242,5.75 29.294,4.31 31.904,4.274 Z M44.648,7.874 C47.24,7.874 48.572,9.638 48.572,12.248 L48.572,17 L46.286,17 L46.286,12.392 C46.286,10.718 45.494,10.088 44.288,10.088 C42.974,10.088 42.146,10.862 42.146,12.59 L42.146,17 L39.86,17 L39.86,4.4 L42.146,4.4 L42.146,8.936 C42.722,8.198 43.676,7.874 44.648,7.874 Z M55.628,7.874 C58.184,7.874 60.254,9.944 60.254,12.5 C60.254,15.056 58.184,17.108 55.628,17.108 C53.072,17.108 51.02,15.056 51.02,12.5 C51.02,9.944 53.072,7.874 55.628,7.874 Z M55.628,10.088 C54.422,10.088 53.306,11.024 53.306,12.5 C53.306,13.976 54.422,14.894 55.628,14.894 C56.816,14.894 57.95,13.976 57.95,12.5 C57.95,11.024 56.816,10.088 55.628,10.088 Z M67.31,7.892 C69.866,7.892 71.684,9.944 71.684,12.5 C71.684,15.056 69.866,17.126 67.31,17.126 C66.338,17.126 65.474,16.712 64.934,16.118 L64.934,20.312 L62.648,20.312 L62.648,8 L64.178,8 L64.304,9.278 C64.988,8.432 66.05,7.892 67.31,7.892 Z M67.094,10.106 C65.906,10.106 64.772,11.024 64.772,12.5 C64.772,13.976 65.906,14.912 67.094,14.912 C68.3,14.912 69.416,13.976 69.416,12.5 C69.416,11.024 68.3,10.106 67.094,10.106 Z M79.406,6.74 L79.406,17 L76.922,17 L76.922,6.74 L73.466,6.74 L73.466,4.4 L82.862,4.4 L82.862,6.74 L79.406,6.74 Z M89.162,7.874 C91.088,7.874 92.438,8.792 93.122,10.304 C93.5,11.132 93.518,12.356 93.266,13.13 L86.984,13.13 C86.984,14.354 87.992,15.02 89.216,15.02 C90.152,15.02 91.124,14.804 91.934,14.39 L93.14,15.704 C92.168,16.424 90.818,17.108 89.216,17.108 C86.48,17.108 84.626,15.128 84.626,12.5 C84.626,9.944 86.354,7.874 89.162,7.874 Z M89.162,9.962 C87.938,9.962 87.11,10.826 87.074,11.69 L91.196,11.69 C91.196,11.474 91.124,11.186 90.98,10.97 C90.674,10.394 90.026,9.962 89.162,9.962 Z M99.944,7.892 C101.366,7.892 102.644,8.54 103.49,9.548 L102.122,11.024 C101.384,10.34 100.736,10.106 99.944,10.106 C98.738,10.106 97.622,11.024 97.622,12.5 C97.622,13.976 98.738,14.894 99.944,14.894 C100.736,14.894 101.384,14.66 102.122,13.976 L103.49,15.452 C102.644,16.46 101.366,17.108 99.944,17.108 C97.388,17.108 95.336,15.056 95.336,12.5 C95.336,9.944 97.388,7.892 99.944,7.892 Z M110.816,7.874 C113.408,7.874 114.74,9.638 114.74,12.248 L114.74,17 L112.454,17 L112.454,12.392 C112.454,10.718 111.662,10.088 110.456,10.088 C109.142,10.088 108.314,10.862 108.314,12.59 L108.314,17 L106.028,17 L106.028,4.4 L108.314,4.4 L108.314,8.936 C108.89,8.198 109.844,7.874 110.816,7.874 Z M122.516,7.874 C125.108,7.874 126.44,9.638 126.44,12.248 L126.44,17 L124.154,17 L124.154,12.392 C124.154,10.718 123.362,10.088 122.156,10.088 C120.842,10.088 120.014,10.862 120.014,12.59 L120.014,17 L117.728,17 L117.728,8 L119.258,8 L119.42,9.404 C120.032,8.396 121.184,7.874 122.516,7.874 Z M133.496,7.874 C136.052,7.874 138.122,9.944 138.122,12.5 C138.122,15.056 136.052,17.108 133.496,17.108 C130.94,17.108 128.888,15.056 128.888,12.5 C128.888,9.944 130.94,7.874 133.496,7.874 Z M133.496,10.088 C132.29,10.088 131.174,11.024 131.174,12.5 C131.174,13.976 132.29,14.894 133.496,14.894 C134.684,14.894 135.818,13.976 135.818,12.5 C135.818,11.024 134.684,10.088 133.496,10.088 Z M140.732,17 L140.732,4.4 L143.036,4.4 L143.036,17 L140.732,17 Z M150.092,7.874 C152.648,7.874 154.718,9.944 154.718,12.5 C154.718,15.056 152.648,17.108 150.092,17.108 C147.536,17.108 145.484,15.056 145.484,12.5 C145.484,9.944 147.536,7.874 150.092,7.874 Z M150.092,10.088 C148.886,10.088 147.77,11.024 147.77,12.5 C147.77,13.976 148.886,14.894 150.092,14.894 C151.28,14.894 152.414,13.976 152.414,12.5 C152.414,11.024 151.28,10.088 150.092,10.088 Z M161,7.874 C162.242,7.874 163.322,8.414 163.988,9.26 L164.114,8 L165.644,8 L165.644,15.848 C165.644,18.476 163.934,20.438 161.126,20.438 C159.47,20.438 158.12,19.844 157.148,19.034 L158.444,17.648 C159.308,18.08 160.118,18.368 161.126,18.35 C162.44,18.35 163.322,17.684 163.322,16.37 L163.322,15.866 C162.782,16.46 161.936,16.838 161,16.838 C158.444,16.838 156.608,14.786 156.608,12.374 C156.608,9.944 158.444,7.874 161,7.874 Z M161.216,10.088 C160.01,10.088 158.894,11.024 158.894,12.374 C158.894,13.706 160.01,14.624 161.216,14.624 C162.404,14.624 163.538,13.706 163.538,12.374 C163.538,11.024 162.404,10.088 161.216,10.088 Z M177.434,8 L177.434,15.848 C177.434,18.476 175.724,20.438 172.934,20.438 C171.278,20.438 169.91,19.844 168.938,19.034 L170.234,17.648 C171.098,18.08 171.908,18.368 172.934,18.35 C174.23,18.35 175.13,17.684 175.13,16.37 L175.13,15.794 C174.554,16.532 173.6,16.856 172.664,16.856 C170.054,16.856 168.722,15.074 168.722,12.464 L168.722,8 L171.008,8 L171.008,12.338 C171.008,13.994 171.8,14.642 173.024,14.642 C174.32,14.642 175.148,13.868 175.148,12.14 L175.148,8 L177.434,8 Z" id="ShopTechnology"></path>
                            <path d="M1,0 C0.447738124,5.52179053e-05 5.52179053e-05,0.447738124 0,1 L0,5 C5.52179053e-05,5.55226188 0.447738124,5.99994478 1,6 L5,6 C5.55226188,5.99994478 5.99994478,5.55226188 6,5 L6,4 L8,4 L8,2 L6,2 L6,1 C5.99994478,0.447738124 5.55226188,5.52179053e-05 5,0 L1,0 Z M15,0 C14.4477381,5.52179053e-05 14.0000552,0.447738124 14,1 L14,5 C14.0000552,5.55226188 14.4477381,5.99994478 15,6 L16,6 L16,8 L18,8 L18,6 L19,6 C19.5522619,5.99994478 19.9999448,5.55226188 20,5 L20,1 C19.9999448,0.447738124 19.5522619,5.52179053e-05 19,0 L15,0 Z M2,2 L4,2 L4,4 L2,4 L2,2 Z M10,2 L10,4 L12,4 L12,2 L10,2 Z M16,2 L18,2 L18,4 L16,4 L16,2 Z M2,8 L2,10 L4,10 L4,8 L2,8 Z M16,10 L16,12 L18,12 L18,10 L16,10 Z M2,12 L2,14 L1,14 C0.447738124,14.0000552 5.52179053e-05,14.4477381 0,15 L0,19 C5.52179053e-05,19.5522619 0.447738124,19.9999448 1,20 L5,20 C5.55226188,19.9999448 5.99994478,19.5522619 6,19 L6,15 C5.99994478,14.4477381 5.55226188,14.0000552 5,14 L4,14 L4,12 L2,12 Z M15,14 C14.4477381,14.0000552 14.0000552,14.4477381 14,15 L14,16 L12,16 L12,18 L14,18 L14,19 C14.0000552,19.5522619 14.4477381,19.9999448 15,20 L19,20 C19.5522619,19.9999448 19.9999448,19.5522619 20,19 L20,15 C19.9999448,14.4477381 19.5522619,14.0000552 19,14 L15,14 Z M2,16 L4,16 L4,18 L2,18 L2,16 Z M8,16 L8,18 L10,18 L10,16 L8,16 Z M16,16 L18,16 L18,18 L16,18 L16,16 Z" id="Shape"></path>
                        </g>
                    </g>
                </g>
            </g>
        </g>
    </g>
</svg>