<?xml version="1.0" encoding="UTF-8"?>
<svg width="108px" height="36px" viewBox="0 0 108 36" version="1.1" xmlns="http://www.w3.org/2000/svg" xmlns:xlink="http://www.w3.org/1999/xlink">
    <!-- Generator: Sketch 51.3 (57544) - http://www.bohemiancoding.com/sketch -->
    <title>logo-2</title>
    <desc>Created with Sketch.</desc>
    <defs></defs>
    <g id="Page-1" stroke="none" stroke-width="1" fill="none" fill-rule="evenodd">
        <g id="logo-1" transform="translate(0.000000, 7.000000)" fill-rule="nonzero">
            <path d="M7.434,14.352 C7.452,14.604 7.47,15.198 7.47,15.828 C7.47,16.656 7.452,17.52 7.398,17.754 C7.326,18.114 7.218,18.654 6.75,18.654 C5.796,18.654 5.724,17.304 5.328,15.738 C4.788,13.668 4.5,12.624 4.212,11.31 C4.068,10.626 4.068,9.888 3.816,9.24 C3.672,8.934 3.6,8.412 3.51,8.088 L3.006,6.09 C3.006,6.072 2.52,4.164 2.484,4.128 C2.484,4.74 2.43,5.352 2.448,5.946 C2.466,6.306 2.628,8.7 2.628,10.158 C2.628,11.814 2.79,13.47 2.826,15.126 C2.826,15.612 2.844,16.116 2.844,16.602 C2.844,17.538 2.826,18.546 2.106,18.546 C1.548,18.546 1.296,18.042 1.296,17.34 C1.296,17.358 1.278,16.458 1.278,14.748 C1.278,13.452 1.278,11.706 1.332,9.51 C1.332,8.844 1.35,8.178 1.35,7.512 C1.35,6.54 1.332,5.568 1.242,4.578 C1.206,4.272 1.134,3.21 1.134,3.012 C1.134,2.598 1.188,2.742 1.188,2.454 C1.188,2.184 1.008,2.238 0.828,2.166 C0.648,2.094 0.54,1.788 0.54,1.626 C0.54,1.428 0.648,1.23 0.81,1.122 C1.026,0.978 1.314,0.942 1.548,0.834 C1.692,0.762 1.818,0.726 1.944,0.726 C2.088,0.726 2.232,0.78 2.376,0.852 C2.826,1.068 3.006,1.626 3.186,2.49 C3.276,2.922 3.456,3.282 3.6,3.696 C3.618,3.804 4.644,7.332 4.698,7.53 C4.914,8.376 5.094,9.204 5.256,10.086 C5.742,12.732 6.192,14.496 6.39,15.378 C6.408,14.982 6.336,12.48 6.084,9.87 C6.066,9.744 6.066,9.618 6.066,9.528 L6.066,9.24 C6.066,9.078 6.048,8.898 6.03,8.736 C5.994,8.448 5.958,8.16 5.958,7.872 C5.994,6.828 6.048,5.784 6.048,4.74 C6.048,4.128 6.03,3.498 5.976,2.886 C5.922,2.346 5.832,1.932 5.832,1.59 C5.832,1.32 5.886,1.104 6.066,0.924 C6.21,0.78 6.39,0.726 6.588,0.726 C6.876,0.726 7.146,0.87 7.236,1.158 C7.29,1.356 7.308,1.698 7.308,2.148 C7.308,2.508 7.29,2.922 7.272,3.372 C7.254,3.876 7.236,4.398 7.236,4.902 C7.236,5.208 7.236,5.532 7.254,5.838 C7.29,6.576 7.38,7.296 7.38,8.016 C7.38,8.214 7.38,8.412 7.362,8.61 C7.29,9.204 7.272,9.564 7.272,9.852 C7.272,10.428 7.362,10.644 7.362,11.49 C7.362,11.724 7.416,14.226 7.434,14.352 Z M16.154,16.134 C16.262,16.656 16.352,17.16 16.352,17.574 C16.352,18.132 16.19,18.51 15.686,18.51 C14.714,18.51 14.696,17.358 14.588,15.99 C14.588,16.332 14.174,12.714 14.084,11.868 L13.724,9.15 C13.526,9.15 13.382,9.132 13.22,9.114 C13.166,9.096 13.094,9.096 13.022,9.096 L12.806,9.096 L12.374,12.174 C12.176,13.542 11.834,15.738 11.708,16.746 C11.582,17.61 11.492,18.258 11.204,18.474 C11.078,18.582 10.934,18.636 10.772,18.636 C10.088,18.636 10.07,17.898 10.07,17.556 C10.07,17.43 10.088,17.25 10.286,16.188 L10.664,13.812 C10.862,12.75 11.402,9.726 11.492,9.132 C10.988,9.186 10.52,8.988 10.52,8.43 C10.52,8.07 10.736,7.908 10.862,7.854 C11.006,7.764 11.168,7.728 11.366,7.728 C11.456,7.728 11.564,7.746 11.69,7.764 L11.744,7.764 C11.798,7.512 11.798,7.368 11.852,6.918 L11.906,6.288 C11.96,5.694 11.996,5.118 12.068,4.524 L12.266,2.832 C12.284,2.634 12.338,2.454 12.392,2.256 L12.446,2.022 C12.338,2.022 12.248,2.004 12.158,1.968 C11.906,1.932 11.618,1.734 11.618,1.356 C11.618,0.798 11.87,0.672 13.004,0.672 C13.508,0.672 13.688,0.816 13.832,1.032 C13.922,1.176 13.958,1.338 13.958,1.428 C13.976,1.482 13.976,1.554 13.994,1.608 C14.12,2.004 14.12,2.004 14.12,2.04 L14.12,2.076 C14.156,2.238 14.174,2.4 14.174,2.526 C14.174,2.742 14.264,3.768 14.264,3.732 C14.3,3.93 14.732,6.81 14.732,6.9 L14.912,7.656 C14.912,7.692 15.02,8.178 15.02,8.538 L15.02,8.844 C15.038,9.096 15.434,11.742 15.866,14.478 C15.938,15 16.028,15.558 16.154,16.134 Z M13.652,7.854 L13.652,7.584 L13.634,7.35 C13.616,7.08 13.49,5.586 13.454,5.298 C13.436,5.208 13.436,5.1 13.436,4.992 L13.274,3.948 L13.274,3.876 L13.238,4.092 C13.094,4.902 13.004,6.468 12.878,7.872 C12.896,7.872 13.652,7.836 13.652,7.854 Z M22.39,0.672 L22.444,0.672 L22.39,0.672 Z M22.444,0.672 C22.822,0.69 23.362,0.942 23.362,1.41 C23.362,2.058 22.696,2.184 22.084,2.184 C21.886,2.184 21.04,2.094 21.022,2.094 C20.914,2.094 20.824,2.13 20.824,2.256 C20.86,2.526 20.896,3.696 20.896,4.11 C20.896,4.866 20.86,5.64 20.86,6.378 C20.86,9.636 21.04,12.228 21.04,15.774 C21.04,16.386 21.058,16.89 21.058,17.304 C21.058,18.24 20.968,18.636 20.374,18.636 C19.762,18.636 19.618,18.114 19.618,17.412 C19.618,17.142 19.636,16.872 19.636,16.602 C19.636,15.936 19.618,15.288 19.618,14.622 C19.618,11.832 19.618,6.648 19.51,4.236 C19.474,3.624 19.438,3.048 19.438,2.436 C19.438,2.292 19.42,2.166 19.258,2.13 C19.132,2.112 18.826,2.076 18.574,2.076 C18.466,2.076 18.376,2.076 18.304,2.094 C18.034,2.148 17.728,2.274 17.44,2.274 C17.116,2.274 16.702,2.04 16.702,1.59 C16.702,1.14 17.08,0.87 17.728,0.87 C17.872,0.87 17.998,0.888 18.142,0.888 C18.52,0.888 18.88,0.78 19.258,0.78 C19.528,0.78 19.798,0.852 20.068,0.852 C20.302,0.852 22.624,0.69 22.444,0.672 Z M30.804,8.502 L30.804,13.092 C30.804,13.74 30.822,14.388 30.822,15.036 C30.822,15.792 30.804,16.566 30.534,17.268 C30.318,17.862 29.904,18.312 29.31,18.492 C28.968,18.6 28.572,18.654 28.176,18.654 C26.178,18.654 25.638,17.376 25.584,14.838 C25.602,14.1 25.692,6.774 25.71,6.036 C25.71,4.812 25.656,3.48 25.656,2.526 C25.656,2.328 25.62,2.148 25.494,2.112 C25.206,2.004 24.882,1.878 24.882,1.428 C24.882,0.96 25.476,0.672 26.07,0.672 C26.952,0.672 27.276,1.104 27.276,1.932 C27.276,2.364 27.204,2.832 27.204,3.264 C27.204,3.264 27.096,12.336 27.096,13.218 L27.096,14.37 C27.096,15.486 27.132,16.26 27.384,16.602 C27.654,17.034 27.672,17.322 28.338,17.322 C29.346,17.322 29.436,15.432 29.436,12.732 L29.436,10.752 C29.436,9.33 29.346,9.276 29.346,7.89 C29.346,6.36 29.472,4.848 29.472,3.318 L29.454,1.662 C29.454,1.086 29.652,0.672 30.174,0.672 C30.876,0.672 30.822,1.554 30.822,2.202 C30.822,2.256 30.894,4.38 30.894,5.208 C30.894,6.54 30.804,7.674 30.804,8.502 Z M25.584,14.46 L25.584,14.892 L25.584,14.46 Z M39.308,11.76 C39.38,12.57 39.398,13.002 39.398,13.434 C39.398,13.83 39.38,14.262 39.362,15 L39.326,16.764 C39.308,16.926 39.272,17.124 39.272,17.322 C39.272,17.538 39.344,17.718 39.344,17.916 C39.344,18.348 38.84,18.654 38.462,18.654 C38.03,18.654 37.706,18.276 37.706,17.844 C37.706,17.664 37.976,15.468 37.976,14.64 C37.976,13.596 37.94,12.21 37.742,11.418 C37.652,11.022 37.67,10.644 37.58,10.248 C37.544,10.014 37.688,9.6 37.4,9.492 C36.968,9.312 36.518,9.276 36.068,9.276 C35.96,9.276 35.87,9.276 35.78,9.294 C35.69,9.312 35.744,9.492 35.744,9.564 C35.798,9.942 35.78,10.338 35.798,10.734 C35.816,11.238 35.87,16.278 35.87,16.944 C35.87,17.178 35.834,17.43 35.834,17.646 C35.834,18.114 35.726,18.456 35.114,18.456 C34.538,18.456 34.34,17.97 34.34,17.376 C34.34,17.07 34.394,16.242 34.394,15.486 C34.394,14.532 34.358,13.578 34.358,12.624 C34.358,9.618 34.412,10.392 34.412,7.314 C34.376,5.712 34.052,4.11 34.142,2.508 C34.16,2.202 33.98,2.292 33.872,2.292 C33.548,2.292 33.314,1.932 33.314,1.626 C33.314,1.284 33.638,1.068 33.962,1.032 C34.142,1.014 34.25,0.996 34.376,0.906 C34.556,0.762 34.718,0.672 34.916,0.672 C35.15,0.672 35.384,0.762 35.456,0.96 C35.51,1.14 35.546,1.194 35.726,1.266 C37.328,1.932 39.146,3.84 39.146,5.442 C39.146,6.558 38.714,7.53 37.85,8.232 C37.994,8.322 38.192,8.34 38.336,8.448 C38.966,8.934 39.092,9.24 39.092,10.248 C39.092,10.752 39.236,11.256 39.308,11.76 Z M35.672,7.782 C36.806,7.53 37.652,6.666 37.652,5.532 C37.652,4.686 36.914,3.534 35.546,2.724 C35.546,3.174 35.636,6.504 35.636,6.558 C35.636,6.954 35.672,7.368 35.672,7.782 Z M47.7400001,16.134 C47.8480001,16.656 47.9380001,17.16 47.9380001,17.574 C47.9380001,18.132 47.7760001,18.51 47.2720001,18.51 C46.3000001,18.51 46.2820001,17.358 46.1740001,15.99 C46.1740001,16.332 45.7600001,12.714 45.6700001,11.868 L45.3100001,9.15 C45.1120001,9.15 44.9680001,9.132 44.8060001,9.114 C44.7520001,9.096 44.6800001,9.096 44.6080001,9.096 L44.3920001,9.096 L43.9600001,12.174 C43.7620001,13.542 43.4200001,15.738 43.2940001,16.746 C43.1680001,17.61 43.0780001,18.258 42.7900001,18.474 C42.6640001,18.582 42.5200001,18.636 42.3580001,18.636 C41.6740001,18.636 41.6560001,17.898 41.6560001,17.556 C41.6560001,17.43 41.6740001,17.25 41.8720001,16.188 L42.2500001,13.812 C42.4480001,12.75 42.9880001,9.726 43.0780001,9.132 C42.5740001,9.186 42.1060001,8.988 42.1060001,8.43 C42.1060001,8.07 42.3220001,7.908 42.4480001,7.854 C42.5920001,7.764 42.7540001,7.728 42.9520001,7.728 C43.0420001,7.728 43.1500001,7.746 43.2760001,7.764 L43.3300001,7.764 C43.3840001,7.512 43.3840001,7.368 43.4380001,6.918 L43.4920001,6.288 C43.5460001,5.694 43.5820001,5.118 43.6540001,4.524 L43.8520001,2.832 C43.8700001,2.634 43.9240001,2.454 43.9780001,2.256 L44.0320001,2.022 C43.9240001,2.022 43.8340001,2.004 43.7440001,1.968 C43.4920001,1.932 43.2040001,1.734 43.2040001,1.356 C43.2040001,0.798 43.4560001,0.672 44.5900001,0.672 C45.0940001,0.672 45.2740001,0.816 45.4180001,1.032 C45.5080001,1.176 45.5440001,1.338 45.5440001,1.428 C45.5620001,1.482 45.5620001,1.554 45.5800001,1.608 C45.7060001,2.004 45.7060001,2.004 45.7060001,2.04 L45.7060001,2.076 C45.7420001,2.238 45.7600001,2.4 45.7600001,2.526 C45.7600001,2.742 45.8500001,3.768 45.8500001,3.732 C45.8860001,3.93 46.3180001,6.81 46.3180001,6.9 L46.4980001,7.656 C46.4980001,7.692 46.6060001,8.178 46.6060001,8.538 L46.6060001,8.844 C46.6240001,9.096 47.0200001,11.742 47.4520001,14.478 C47.5240001,15 47.6140001,15.558 47.7400001,16.134 Z M45.2380001,7.854 L45.2380001,7.584 L45.2200001,7.35 C45.2020001,7.08 45.0760001,5.586 45.0400001,5.298 C45.0220001,5.208 45.0220001,5.1 45.0220001,4.992 L44.8600001,3.948 L44.8600001,3.876 L44.8240001,4.092 C44.6800001,4.902 44.5900001,6.468 44.4640001,7.872 C44.4820001,7.872 45.2380001,7.836 45.2380001,7.854 Z M54.5520001,17.232 C55.1460001,17.232 55.6320001,17.358 55.6320001,17.952 C55.6320001,18.456 55.2360001,18.582 54.8040001,18.582 C54.5160001,18.582 54.1560001,18.654 54.0840001,18.654 C53.8860001,18.654 52.8780001,18.492 52.4460001,18.492 C52.3740001,18.492 52.3200001,18.492 52.2840001,18.51 C52.1040001,18.546 51.8880001,18.564 51.7080001,18.564 C51.0960001,18.564 50.5380001,18.366 50.5380001,17.844 C50.5380001,17.736 50.4840001,17.7 50.4840001,17.574 C50.4840001,17.214 50.5020001,15.972 50.5560001,15.558 C50.5560001,15.522 50.5200001,13.92 50.5200001,14.172 C50.5200001,13.614 50.5560001,10.806 50.5560001,10.176 C50.5560001,9.438 50.4840001,8.718 50.4840001,7.98 C50.4840001,7.998 50.5380001,5.694 50.5560001,5.838 C50.5560001,5.586 50.5020001,5.046 50.3400001,3.534 L50.3400001,3.282 C50.3400001,2.976 50.3580001,2.544 50.3580001,2.31 C50.0160001,2.31 49.5480001,2.112 49.5480001,1.716 C49.5480001,1.176 49.9260001,0.978 50.1780001,0.978 C50.3040001,0.978 50.4120001,0.942 50.5380001,0.942 C50.6640001,0.942 50.6460001,0.906 50.7360001,0.834 C50.8620001,0.744 51.0060001,0.69 51.1500001,0.69 C51.3660001,0.69 51.5820001,0.816 51.6360001,0.996 C51.6720001,1.05 51.6540001,1.14 51.7260001,1.212 C51.8520001,1.32 51.8520001,1.428 51.8520001,1.59 L51.8520001,1.734 C51.8520001,1.824 51.7440001,1.878 51.7440001,1.968 C51.7440001,2.022 51.7080001,2.076 51.7080001,2.13 L51.7080001,4.632 C51.7080001,4.974 51.7440001,5.334 51.8160001,5.676 C51.8520001,5.784 51.8520001,5.892 51.8520001,6.018 C51.8520001,6.252 51.8160001,6.504 51.8160001,6.72 C51.8160001,7.206 51.8520001,7.692 51.8520001,8.178 C51.9060001,10.212 51.9780001,12.606 51.9780001,14.172 C51.9780001,14.766 51.9780001,15.234 51.9420001,15.522 C51.9060001,15.81 51.8700001,16.746 51.8700001,17.088 C51.8700001,17.196 51.9420001,17.214 52.1040001,17.214 L52.4820001,17.214 C52.7700001,17.214 53.7060001,17.286 54.0120001,17.25 C54.1920001,17.232 54.3720001,17.232 54.5520001,17.232 Z M59.3300001,6.738 C61.0580001,6.774 62.0840001,7.926 62.0840001,9.672 C62.0840001,10.302 61.9940001,11.022 61.8860001,11.85 C61.8320001,12.318 61.8140001,13.2 61.8140001,14.424 C61.8140001,16.098 61.2380001,18.654 59.6180001,18.654 C57.4220001,18.654 56.8640001,15.936 56.8640001,12.948 L57.0080001,10.482 C57.0080001,10.338 56.9720001,10.302 56.8460001,10.284 C56.7020001,10.266 56.4320001,10.014 56.4320001,9.708 C56.4320001,9.15 56.9900001,8.988 57.7280001,8.988 C58.2140001,8.988 58.5380001,9.276 58.5380001,9.708 C58.5380001,9.978 58.3940001,10.104 58.3940001,10.248 C58.3940001,10.464 58.4120001,10.662 58.4120001,10.878 C58.4120001,10.986 58.4300001,12.48 58.4300001,14.082 C58.4300001,14.568 58.4300001,15.054 58.4840001,15.54 C58.5740001,16.242 59.0240001,17.286 59.5460001,17.286 C59.7440001,17.286 60.0680001,16.422 60.2120001,15.792 C60.4280001,15 60.4280001,14.226 60.4100001,13.416 C60.4100001,12.174 60.6800001,11.238 60.6800001,10.014 C60.6800001,8.772 60.3200001,8.07 59.0960001,8.07 C58.3580001,8.07 58.2860001,8.178 57.8180001,8.178 C56.8640001,8.178 56.7740001,6.936 56.7740001,6.36 C56.7740001,5.802 56.8640001,5.208 56.8640001,4.65 C56.8640001,4.164 56.7560001,3.57 56.7560001,2.994 C56.7560001,1.554 57.8720001,0.636 59.2580001,0.636 C60.6080001,0.636 61.0580001,1.338 61.0580001,2.94 C61.0580001,2.94 60.9860001,3.768 60.9860001,3.93 C60.9860001,4.128 61.0760001,5.118 61.0760001,5.262 C61.0760001,5.802 60.8060001,6.126 60.3380001,6.126 C59.6540001,6.126 59.6180001,5.244 59.6180001,4.668 C59.6180001,5.046 59.6540001,3.372 59.6540001,2.724 C59.6540001,2.382 59.6900001,2.112 59.3480001,2.094 C58.3760001,2.094 58.3400001,2.598 58.2500001,3.516 C58.1780001,4.056 58.1600001,4.326 58.1600001,4.704 C58.1600001,5.01 58.1780001,5.406 58.1780001,6.126 C58.1780001,6.594 58.2140001,6.756 58.5740001,6.756 C58.6640001,6.756 59.0240001,6.738 59.3300001,6.738 Z M68.7880001,17.232 C69.3820001,17.232 69.8680001,17.358 69.8680001,17.952 C69.8680001,18.456 69.4720001,18.582 69.0400001,18.582 C68.7520001,18.582 68.3920001,18.654 68.3200001,18.654 C68.1220001,18.654 67.1140001,18.492 66.6820001,18.492 C66.6100001,18.492 66.5560001,18.492 66.5200001,18.51 C66.3400001,18.546 66.1240001,18.564 65.9440001,18.564 C65.3320001,18.564 64.7740001,18.366 64.7740001,17.844 C64.7740001,17.736 64.7200001,17.7 64.7200001,17.574 C64.7200001,17.214 64.7380001,15.972 64.7920001,15.558 C64.7920001,15.522 64.7560001,13.92 64.7560001,14.172 C64.7560001,13.614 64.7920001,10.806 64.7920001,10.176 C64.7920001,9.438 64.7200001,8.718 64.7200001,7.98 C64.7200001,7.998 64.7740001,5.694 64.7920001,5.838 C64.7920001,5.586 64.7380001,5.046 64.5760001,3.534 L64.5760001,3.282 C64.5760001,2.976 64.5940001,2.544 64.5940001,2.31 C64.2520001,2.31 63.7840001,2.112 63.7840001,1.716 C63.7840001,1.176 64.1620001,0.978 64.4140001,0.978 C64.5400001,0.978 64.6480001,0.942 64.7740001,0.942 C64.9000001,0.942 64.8820001,0.906 64.9720001,0.834 C65.0980001,0.744 65.2420001,0.69 65.3860001,0.69 C65.6020001,0.69 65.8180001,0.816 65.8720001,0.996 C65.9080001,1.05 65.8900001,1.14 65.9620001,1.212 C66.0880001,1.32 66.0880001,1.428 66.0880001,1.59 L66.0880001,1.734 C66.0880001,1.824 65.9800001,1.878 65.9800001,1.968 C65.9800001,2.022 65.9440001,2.076 65.9440001,2.13 L65.9440001,4.632 C65.9440001,4.974 65.9800001,5.334 66.0520001,5.676 C66.0880001,5.784 66.0880001,5.892 66.0880001,6.018 C66.0880001,6.252 66.0520001,6.504 66.0520001,6.72 C66.0520001,7.206 66.0880001,7.692 66.0880001,8.178 C66.1420001,10.212 66.2140001,12.606 66.2140001,14.172 C66.2140001,14.766 66.2140001,15.234 66.1780001,15.522 C66.1420001,15.81 66.1060001,16.746 66.1060001,17.088 C66.1060001,17.196 66.1780001,17.214 66.3400001,17.214 L66.7180001,17.214 C67.0060001,17.214 67.9420001,17.286 68.2480001,17.25 C68.4280001,17.232 68.6080001,17.232 68.7880001,17.232 Z M76.9500001,17.952 C76.9500001,18.546 76.3920001,18.564 75.9420001,18.564 C75.7260001,18.564 75.5280001,18.492 75.3120001,18.492 L74.8440001,18.492 C74.5020001,18.492 74.1600001,18.51 73.8180001,18.51 C73.6200001,18.51 73.4220001,18.546 73.2420001,18.546 C73.0260001,18.546 72.9180001,18.672 72.7020001,18.672 C72.5940001,18.672 72.5040001,18.654 72.3960001,18.582 C72.2880001,18.51 72.1440001,18.546 72.0180001,18.51 C71.6940001,18.438 71.4240001,18.33 71.3520001,17.988 C71.2080001,17.826 71.4600001,17.466 71.6220001,17.43 C71.7300001,17.394 71.8920001,17.394 71.8920001,17.268 C71.8920001,16.962 71.8560001,16.656 71.8560001,16.332 C71.8380001,15.9 71.8380001,15.45 71.8380001,15.018 C71.8380001,12.966 71.9280001,10.914 71.9280001,8.862 C71.9280001,8.16 71.9280001,7.458 71.8920001,6.756 C71.8200001,5.244 71.6760001,3.75 71.6760001,2.238 C71.6760001,2.22 71.3340001,2.13 71.2980001,2.112 C71.1180001,2.022 71.0280001,1.824 71.0280001,1.626 C71.0280001,1.554 71.0460001,1.482 71.0640001,1.41 C71.1180001,1.212 71.2800001,1.104 71.4600001,1.032 C71.4960001,1.014 71.7120001,0.96 71.7120001,0.96 C71.7120001,0.942 71.9820001,0.96 72.0360001,0.924 C72.0720001,0.87 72.1620001,0.78 72.2340001,0.78 C72.2700001,0.78 72.3960001,0.708 72.4860001,0.708 C72.5940001,0.708 72.6840001,0.726 72.7920001,0.78 C72.8460001,0.834 72.9180001,0.96 72.9720001,0.96 C74.4120001,0.96 75.4560001,0.942 75.5100001,0.942 C76.0140001,0.942 76.2120001,0.978 76.5180001,1.05 C76.6620001,1.086 76.9320001,1.374 76.9320001,1.59 C76.9320001,1.788 76.8960001,1.878 76.7700001,2.004 C76.6980001,2.094 76.5900001,2.094 76.5000001,2.13 C76.3740001,2.202 76.1760001,2.202 76.0500001,2.22 C75.8880001,2.256 74.9880001,2.328 74.7900001,2.328 C74.4480001,2.328 74.1060001,2.31 73.7640001,2.31 C73.6380001,2.31 73.4940001,2.346 73.3500001,2.346 C73.3140001,2.346 73.2060001,2.31 73.2060001,2.364 L73.2060001,2.634 C73.2060001,3.282 73.2420001,3.93 73.2420001,4.578 C73.2420001,5.334 73.2060001,6.108 73.2060001,6.882 C73.2060001,7.242 73.2240001,7.62 73.2240001,7.998 C73.2240001,8.178 73.2240001,8.232 73.3860001,8.232 C73.5480001,8.232 73.6920001,8.214 73.8360001,8.214 C74.0520001,8.214 74.3940001,8.16 74.7360001,8.16 C75.2400001,8.16 75.7440001,8.268 75.7440001,8.808 C75.7440001,9.186 75.3480001,9.366 74.9700001,9.42 C74.7180001,9.456 74.4480001,9.474 74.1960001,9.51 C73.9260001,9.546 73.6740001,9.618 73.3860001,9.618 C73.3140001,9.618 73.2960001,9.636 73.2960001,9.78 C73.2960001,9.924 73.3140001,10.086 73.3140001,10.248 C73.3140001,10.518 73.3320001,10.788 73.3320001,11.058 C73.3320001,12.858 73.3500001,14.64 73.4220001,16.422 C73.4400001,16.692 73.4220001,16.962 73.4040001,17.232 C73.9260001,17.196 74.4660001,17.178 74.9880001,17.178 C75.4020001,17.178 75.8340001,17.178 76.2300001,17.286 C76.5360001,17.376 76.9500001,17.574 76.9500001,17.952 Z M84.7520001,17.952 C84.7520001,18.546 84.1940001,18.564 83.7440001,18.564 C83.5280001,18.564 83.3300001,18.492 83.1140001,18.492 L82.6460001,18.492 C82.3040001,18.492 81.9620001,18.51 81.6200001,18.51 C81.4220001,18.51 81.2240001,18.546 81.0440001,18.546 C80.8280001,18.546 80.7200001,18.672 80.5040001,18.672 C80.3960001,18.672 80.3060001,18.654 80.1980001,18.582 C80.0900001,18.51 79.9460001,18.546 79.8200001,18.51 C79.4960001,18.438 79.2260001,18.33 79.1540001,17.988 C79.0100001,17.826 79.2620001,17.466 79.4240001,17.43 C79.5320001,17.394 79.6940001,17.394 79.6940001,17.268 C79.6940001,16.962 79.6580001,16.656 79.6580001,16.332 C79.6400001,15.9 79.6400001,15.45 79.6400001,15.018 C79.6400001,12.966 79.7300001,10.914 79.7300001,8.862 C79.7300001,8.16 79.7300001,7.458 79.6940001,6.756 C79.6220001,5.244 79.4780001,3.75 79.4780001,2.238 C79.4780001,2.22 79.1360001,2.13 79.1000001,2.112 C78.9200001,2.022 78.8300001,1.824 78.8300001,1.626 C78.8300001,1.554 78.8480001,1.482 78.8660001,1.41 C78.9200001,1.212 79.0820001,1.104 79.2620001,1.032 C79.2980001,1.014 79.5140001,0.96 79.5140001,0.96 C79.5140001,0.942 79.7840001,0.96 79.8380001,0.924 C79.8740001,0.87 79.9640001,0.78 80.0360001,0.78 C80.0720001,0.78 80.1980001,0.708 80.2880001,0.708 C80.3960001,0.708 80.4860001,0.726 80.5940001,0.78 C80.6480001,0.834 80.7200001,0.96 80.7740001,0.96 C82.2140001,0.96 83.2580001,0.942 83.3120001,0.942 C83.8160001,0.942 84.0140001,0.978 84.3200001,1.05 C84.4640001,1.086 84.7340001,1.374 84.7340001,1.59 C84.7340001,1.788 84.6980001,1.878 84.5720001,2.004 C84.5000001,2.094 84.3920001,2.094 84.3020001,2.13 C84.1760001,2.202 83.9780001,2.202 83.8520001,2.22 C83.6900001,2.256 82.7900001,2.328 82.5920001,2.328 C82.2500001,2.328 81.9080001,2.31 81.5660001,2.31 C81.4400001,2.31 81.2960001,2.346 81.1520001,2.346 C81.1160001,2.346 81.0080001,2.31 81.0080001,2.364 L81.0080001,2.634 C81.0080001,3.282 81.0440001,3.93 81.0440001,4.578 C81.0440001,5.334 81.0080001,6.108 81.0080001,6.882 C81.0080001,7.242 81.0260001,7.62 81.0260001,7.998 C81.0260001,8.178 81.0260001,8.232 81.1880001,8.232 C81.3500001,8.232 81.4940001,8.214 81.6380001,8.214 C81.8540001,8.214 82.1960001,8.16 82.5380001,8.16 C83.0420001,8.16 83.5460001,8.268 83.5460001,8.808 C83.5460001,9.186 83.1500001,9.366 82.7720001,9.42 C82.5200001,9.456 82.2500001,9.474 81.9980001,9.51 C81.7280001,9.546 81.4760001,9.618 81.1880001,9.618 C81.1160001,9.618 81.0980001,9.636 81.0980001,9.78 C81.0980001,9.924 81.1160001,10.086 81.1160001,10.248 C81.1160001,10.518 81.1340001,10.788 81.1340001,11.058 C81.1340001,12.858 81.1520001,14.64 81.2240001,16.422 C81.2420001,16.692 81.2240001,16.962 81.2060001,17.232 C81.7280001,17.196 82.2680001,17.178 82.7900001,17.178 C83.2040001,17.178 83.6360001,17.178 84.0320001,17.286 C84.3380001,17.376 84.7520001,17.574 84.7520001,17.952 Z M89.1879997,13.9025133 C89.188,13.9023193 89.1880001,13.9021482 89.1879997,13.902 C89.1880001,13.9022018 89.188,13.902399 89.1879997,13.9025917 L89.1879997,13.9025133 Z M89.1879997,13.9025133 C89.1879013,13.9729765 89.1699507,17.0538279 89.1520001,17.718 C89.1520001,18.24 88.9540001,18.636 88.5220001,18.636 C87.8020001,18.636 87.7660001,17.862 87.7660001,17.052 C87.7660001,12.642 87.7840001,11.832 87.8020001,10.842 C87.8200001,10.05 87.8560001,9.258 87.8560001,8.466 C87.8560001,8.142 87.6220001,3.3 87.6220001,3.372 C87.6220001,2.994 87.6400001,2.418 87.5860001,2.292 C87.5500001,2.256 87.4960001,2.238 87.4240001,2.238 C87.3340001,2.238 87.2080001,2.274 87.1180001,2.274 C86.8660001,2.274 86.6320001,1.968 86.6320001,1.698 C86.6320001,1.176 87.1540001,0.996 87.6940001,0.924 C87.8380001,0.906 87.9280001,0.78 88.0540001,0.726 C88.1260001,0.69 88.2340001,0.654 88.3240001,0.654 C88.5580001,0.654 88.6840001,0.816 88.7920001,0.978 C88.8640001,1.104 89.0980001,1.122 89.2240001,1.176 C91.1320001,1.914 92.4820001,3.084 92.4820001,5.496 C92.4820001,8.538 90.7720001,10.644 89.0620001,10.644 C89.0620001,10.644 89.1877178,14.0742969 89.1879997,13.9025917 L89.1879997,13.9025133 Z M89.0080001,9.222 C90.4660001,9.222 91.0780001,7.044 91.0780001,5.496 C91.0780001,3.876 90.3220001,3.048 88.9900001,2.598 L88.9900001,9.096 C88.9900001,9.15 88.9540001,9.222 89.0080001,9.222 Z" id="naturalsleep" fill="#333333" opacity="0.5"></path>
            <g id="icons8-яркая-луна" transform="translate(100.000000, 14.500000) scale(-1, 1) translate(-100.000000, -14.500000) translate(93.000000, 7.000000)" fill="#979797">
                <path d="M13.3051548,8.79141695 C12.5819831,11.9762273 9.97065597,14.2931534 6.86681601,14.4868267 C6.7255785,14.4956949 6.58231172,14.4999709 6.43739003,14.4999686 C4.13484405,14.5070402 1.97929359,13.321072 0.663018903,11.3284606 C0.439337893,10.9877207 0.446380871,10.5385298 0.681861099,10.2036932 C0.927503849,9.85702648 1.3660922,9.71258637 1.76149955,9.8543655 C2.39018229,10.0745932 3.04812221,10.1739262 3.70498433,10.1475611 C6.62821303,10.0258279 8.98211584,7.52965312 9.09792974,4.40222547 C9.12982267,3.52636111 8.97928616,2.65476244 8.65690121,1.84898727 C8.50455712,1.46764943 8.60249551,1.02638784 8.90340283,0.749329115 C9.21606844,0.461444964 9.67611134,0.41815104 10.0352423,0.643964183 C12.7028894,2.30763666 14.0264147,5.61402521 13.3051548,8.79141695 Z M10.0972561,4.4389231 C9.96254157,8.07674467 7.203311,11.0027456 3.74584128,11.1467258 C2.9991334,11.1766978 2.25276597,11.0708129 1.53495421,10.8335117 C2.66983873,12.5138202 4.4940406,13.5059323 6.43585442,13.4999709 C6.56188755,13.4999709 6.6843035,13.4963172 6.80434486,13.48878 C9.45676473,13.3232743 11.7032525,11.3300555 12.3299715,8.57001793 C12.9477783,5.84837208 11.8452177,3.02318368 9.61974149,1.56514713 C9.97032793,2.47594374 10.1330751,3.45524116 10.0972561,4.4389231 Z M1.42745153,10.7969145 C1.43230518,10.7986546 1.43722179,10.7998093 1.4420982,10.8004461 C1.43723142,10.8003339 1.43234078,10.7986273 1.42745153,10.7969145 Z" id="Shape"></path>
                <path d="M0.118120802,2.20044742 C0.0456376399,2.16017902 0,2.08322142 0,2 C0,1.91677858 0.0456376399,1.83982098 0.118120802,1.79955258 L0.97718118,1.34138704 C1.13109616,1.2572706 1.25727083,1.13020137 1.34138704,0.97718118 L1.79955258,0.118120802 C1.83982098,0.0447428426 1.91677858,0 2,0 C2.08322142,0 2.16017902,0.0447428426 2.20044742,0.118120802 L2.65861296,0.97718118 C2.7427294,1.13020137 2.86890384,1.2572706 3.02281882,1.34138704 L3.8818792,1.79955258 C3.95525716,1.83982098 4,1.91677858 4,2 C4,2.08322142 3.95525716,2.16017902 3.8818792,2.20044742 L3.02281882,2.65861296 C2.86890384,2.74272917 2.7427294,2.86890384 2.65861296,3.02281882 L2.20044742,3.8818792 C2.16017902,3.95436236 2.08322142,4 2,4 C1.91677858,4 1.83982098,3.95436236 1.79955258,3.8818792 L1.34138704,3.02281882 C1.25727083,2.86890384 1.13109616,2.74272917 0.97718118,2.65861296 L0.118120802,2.20044742 Z" id="Shape"></path>
                <path d="M3.49202262,6.49665329 L2.8936932,6.16417144 C2.6500328,6.03059025 2.5,5.7761229 2.5,5.49847828 C2.5,5.22174805 2.65011228,4.96632199 2.89408564,4.83257022 L3.49025154,4.50643097 C3.49740927,4.50249419 3.50274903,4.49715987 3.50617881,4.49088098 L3.83553832,3.89090872 C3.96944152,3.65012872 4.22401602,3.5 4.49999987,3.5 C4.77598418,3.5 5.03055913,3.65012899 5.16579127,3.89331557 L5.4943634,4.49187136 C5.49743021,4.49748814 5.50336656,4.50343949 5.50742841,4.50571613 L6.10630575,4.83278456 C6.34988772,4.96632199 6.5,5.22174805 6.5,5.49847828 C6.5,5.7761229 6.3499672,6.03059025 6.10617303,6.16424474 L5.50701114,6.49248229 C5.50226139,6.49507043 5.49803871,6.49930379 5.49416438,6.50646384 L5.16571843,7.10681707 C5.03202842,7.35018279 4.77658638,7.5 4.49999987,7.5 C4.22341383,7.5 3.96797222,7.35018304 3.83420839,7.10668428 L3.50774329,6.51194731 C3.50440299,6.50595451 3.49850713,6.500147 3.49202262,6.49665329 Z M4.38278549,6.02791146 L4.49964522,6.24079263 L4.61554197,6.02895476 C4.71018301,5.85365266 4.85396904,5.70950292 5.0275438,5.61492328 L5.23951251,5.49880043 L5.0247182,5.38148768 C4.852849,5.285885 4.71078361,5.14346051 4.61721459,4.97208869 L4.50000103,4.75855751 L4.3833277,4.97109816 C4.2887205,5.14436872 4.14578647,5.28715747 3.97118176,5.38318911 L3.75740807,5.50013685 L3.96967981,5.6181067 C4.14239341,5.71198057 4.28561673,5.85356072 4.38278549,6.02791146 Z" id="Shape"></path>
            </g>
        </g>
    </g>
</svg>